<?xml version="1.0" encoding="UTF-8"?><svg id="Layer_1" xmlns="http://www.w3.org/2000/svg" viewBox="0 0 35 35"><path d="M29.37,28.42h-2.5c-.26-1.65-.69-3.25-1.27-4.78l2.16-1.24c1.02-.59,1.37-1.89,.78-2.91l-1.72-2.97c-.59-1.02-1.89-1.37-2.91-.78l-2.14,1.23c-1.04-1.29-2.21-2.48-3.49-3.53l1.22-2.11c.59-1.02,.24-2.32-.78-2.91l-2.97-1.72c-1.02-.59-2.32-.24-2.91,.78l-1.19,2.06c-1.54-.6-3.16-1.05-4.83-1.33v-2.35c0-1.17-.95-2.13-2.13-2.13h-1.72v14.61c7.6,.1,13.73,6.28,13.73,13.91h14.79v-1.72c0-1.17-.95-2.13-2.13-2.13Z"/></svg>